<?xml version="1.0" encoding="utf-8"?>
<!-- Generator: Adobe Illustrator 28.0.0, SVG Export Plug-In . SVG Version: 6.00 Build 0)  -->
<svg version="1.1" id="圖層_1" xmlns="http://www.w3.org/2000/svg" xmlns:xlink="http://www.w3.org/1999/xlink" x="0px" y="0px"
	 viewBox="0 0 60 50" style="enable-background:new 0 0 60 50;" xml:space="preserve">
<style type="text/css">
	.st0{fill:#FFFFFF;}
</style>
<g>
	<path class="st0" d="M32.83,20.91c-0.15-0.46-3.11,0.74-3.2,0.26c-0.01-0.06-0.72-2.21-0.52-2.39c0.99-0.89,3.34-2.72,3.04-3.6
		c-0.18-0.51-0.88-0.2-1.23-0.58c-0.45-0.5-6.99,1.91-7.03,1.89c-0.11-0.05-0.25-0.13-0.41-0.22c-0.92-0.55-2.46-1.72-2.23-1.86
		c0.85-0.48,1.59-0.92,2.23-1.31c4.06-2.51,3.91-3.28,2.93-4.06c-0.33-0.26-1.55,0.07-2.93,0.5c-2.05,0.63-4.45,1.46-4.85,0.86
		c-0.37-0.58,3.59-1.93,4.85-2.8c0.09-0.06,0.16-0.12,0.22-0.17c1.46-0.47,4.55,0.05,4.55-2.64c0-0.92-0.84-1.66-1.48-2.22
		c-0.81-0.71-1.51-1.13-2.22-1.24c-0.36-0.06-0.71,0-1.07,0.21c-1.03,0.59-2.19,2.35-4.19,5.74c-0.15,0.26-1.58-2.16-2.72-2.79
		c-0.13-0.07-0.26-0.12-0.39-0.14c-0.23-0.03-0.44-0.04-0.65-0.02c-1.6,0.16-2.65,1.75-3,2.13c-0.87,0.96-1.73,3.11,2.71,5.64
		c0.97,0.55-2.56,0.09-3.26,0.69c-1.22,1.03-1.7,2.39-1.57,2.8c0.3,0.99,1.2,1.01,3.68,0.64c0.41-0.06,0.94-0.52,1.44-0.91
		c0.23-0.18,0.46-0.35,0.66-0.46c0.13-0.06,0.26-0.08,0.37-0.08c0.25,0.02,0.43,0.16,0.37,0.25c-0.01,0.02-0.14,0.11-0.37,0.27
		c-0.25,0.17-0.61,0.42-1.04,0.71c-1.89,1.28-5.01,3.36-5.07,3.44c-0.46,0.6-1.4,0.76-2.18,1.99c-1.3,2.03,2.29,7.09,1.51,8.27
		c-0.68,1.02-2.18,1.27-3.13,1.96c-0.71,0.51-1.15-0.17-1.89,0.18c-2.43,1.15-1.45,3.23-1.48,3.82c-0.01,0.25,0.92,0.48,1.92,0.06
		c2.27-0.95,5.42-3.09,5.87-2.78c0.84,0.57,0.86,0.32,2.49,0.9c0.6,0.22-3.32,1.64-3.33,2.23c-0.02,0.79,0.02,1.52,0.13,2.16
		c0.12,0.69,1.59,0.53,1.8,1.02c0.21,0.46,2.05-0.87,3.36-1.72c0.43-0.28,0.8-0.5,1.04-0.6c0.17-0.07,0.27-0.07,0.28,0.02
		c0.09,0.8,0.38,1.2-0.28,1.72l-0.06,0.05c-0.21,0.15-0.55,0.35-0.98,0.58c-1.86,1.01-5.26,2.65-5.27,3.57
		c-0.02,1.72-0.43,3.56,0.12,4.59c0.14,0.26,1.44,0.55,2.39,0.03c1.14-0.62,2.05-1.9,2.75-2.63c0.41-0.43,0.76-0.68,1.04-0.49
		l0.01,0.01c0.64,0.46-0.23,3.72,0.35,4.01c0.43,0.21,0.9,0.33,1.4,0.33c0.24,0,1.88-1.67,2.34-2.92c0.31-0.85-0.19-3.12,0.29-3.53
		c0.53-0.44,1.45-1.01,2.52-1.63c2.69-1.56,6.26-3.43,6.52-4.4c0.31-1.2-3.56-2.23-3.09-2.51c2.44-1.43,5.15-3.19,3.64-4.97
		c-0.79-0.93-2.99-0.23-3.95,0.24c-0.22,0.11-1.77,1.02-3.12,1.73c-1.08,0.57-2.04,1-2.07,0.76c-0.06-0.46-0.22-5.13,0.69-5
		c0.19,0.03,0.37,3.21,0.37,3.06c0.01-0.19,0.43-0.63,1-1.17c1.17-1.09,2.95-2.55,2.96-2.94c0.02-0.54,3.78,0.3,3.78-0.24
		c0-0.42,3.39-1.3,3.82-2.72C34.19,22,32.94,21.25,32.83,20.91z M17.03,32.23l-0.47-0.38l-0.47-0.38l0.03-2.37h0.43h0.47V32.23z
		 M16.71,27.15c-0.04,0.08-0.09,0.11-0.15,0.12c-0.26,0.03-0.66-0.54-1.04-1.26c-0.52-0.98-0.99-2.23-0.99-2.55
		c0-0.3,0.44-0.34,0.99-0.3c0.33,0.02,0.7,0.07,1.04,0.11c0.27,0.03,0.51,0.05,0.71,0.05c0.47,0-0.19,0.56-0.12,1.27
		C17.29,26.04,16.84,26.93,16.71,27.15z M17.23,19.85c-0.15,0.13-0.38,0.31-0.67,0.49c-0.3,0.18-0.65,0.37-1.04,0.5
		c-0.15,0.05-0.31,0.1-0.47,0.13c-0.96,0.19-1.63,0.2-1.63-0.42c0-0.38,1.08-1.54,2.1-2.35c0.37-0.29,0.73-0.54,1.04-0.69
		c0.2-0.1,0.37-0.15,0.5-0.15C17.96,17.35,17.6,19.54,17.23,19.85z M26.04,36.96c-0.91,0.15-1.79,0.33-2.56,0.54
		c-1.26,0.35-2.25,0.83-2.71,1.54v-1.67c0.9-0.2,1.8-0.7,2.71-1.21c0.49-0.27,0.97-0.55,1.46-0.78
		C25.65,35.5,25.95,36.02,26.04,36.96z M23.48,33.65l0.34-0.17l-0.14,0.9l-0.2,0.17l-2.36,1.92v-1.67L23.48,33.65z M24.86,22.98
		c-0.21,0.18-0.76,0.71-1.38,1.16c-0.46,0.34-0.95,0.63-1.36,0.71c-0.96,0.19-0.45-1.82-0.45-2.43c0-0.38,0.9-1.23,1.81-1.84
		c0.57-0.38,1.14-0.66,1.49-0.66C25.86,19.92,25.22,22.67,24.86,22.98z"/>
</g>
<g>
	<path class="st0" d="M56.66,17.97c-0.28-0.59-4.34,0.12-4.55-0.47c-0.22-0.63-0.01-1.59-0.19-2.17c-0.26-0.85,2.91-1.47,1.62-2.72
		c-0.92-0.9-1.49-2.13-1.95-2.39c-0.42-0.23-2.97,0.51-3.69,0.93c-0.73,0.43,1.22,8.3,0.4,9.01c-1.47,1.27-3.09,2.41-4.66,3.26
		c-1.29,0.7,2.95-5.9,3.76-7.58c0.75-1.54-5.05-2.53-5.45-2.21c-0.32,0.48-3.59,6.24-5.95,9.9c-0.3,4.41,0.42,5.55,2.45,6.52
		c1.21,0.57,4.59-3.5,6.89-3.06c1.86-1.24,2.75-2.19,2.87-1.88c0.31,0.83-3.04,3.83-4.8,4.87c-1.92,1.13-3.13,2.85-3.09,3.46
		c0.09,1.17,1.7,1.99,3.49,2.18c0.89,0.09,2.21-3.57,3-3.54c0.7,0.03,0.8,1.25,0.12,2.1c-1.88,2.37-5.92,6.41-6.41,6.23
		c-0.96-0.36-3.77,3.42-3.25,4.85c2.92,0.15,5.53-1.37,8.2-3.5c1.08-0.86-1.13,2.04-1.89,3.42c-0.3,0.54,0.67,0.15,0.71,0.11
		c1.49-1.34,3.29-2.63,5.52-4.02c2.23-1.39,4.63-2.62,5.38-4.11c0.35-0.69,0.02-1.39-0.24-2.11c-0.2-0.56-4.22,0.96-4.15,0.47
		c0.06-0.44-0.02-2.43,1.1-4.33c1.02-1.74,3.31-1.47,3.24-3.84c-0.04-1.43-2.84-0.13-4.38-0.95c-0.7-0.37-0.83-1.57-0.74-2.36
		C50.15,23.07,58.37,21.57,56.66,17.97z"/>
</g>
</svg>
