<?xml version="1.0" encoding="utf-8"?>
<!-- Generator: Adobe Illustrator 25.4.1, SVG Export Plug-In . SVG Version: 6.00 Build 0)  -->
<svg version="1.1" id="圖層_1" xmlns="http://www.w3.org/2000/svg" xmlns:xlink="http://www.w3.org/1999/xlink" x="0px" y="0px"
	 viewBox="0 0 99.4 58.3" style="enable-background:new 0 0 99.4 58.3;" xml:space="preserve">
<style type="text/css">
	.st0{fill:#1E2B6A;}
</style>
<g>
	<g>
		<g>
			<path class="st0" d="M35,50.1c0.3,0.1,0.6,0.3,0.7,0.5c0.2,0.2,0.2,0.5,0.2,0.8c0,0.5-0.1,0.8-0.4,1.1c-0.3,0.3-0.7,0.4-1.2,0.4
				c-0.4,0-0.7-0.1-1-0.3c-0.3-0.2-0.4-0.5-0.5-0.8l0.5-0.3c0.1,0.3,0.2,0.5,0.4,0.7c0.2,0.2,0.4,0.2,0.6,0.2c0.3,0,0.5-0.1,0.7-0.3
				c0.2-0.2,0.3-0.4,0.3-0.7c0-0.2-0.1-0.4-0.2-0.6c-0.1-0.2-0.3-0.3-0.6-0.4l-0.6-0.3c-0.3-0.1-0.6-0.3-0.7-0.5s-0.2-0.5-0.2-0.8
				c0-0.4,0.1-0.6,0.4-0.9c0.3-0.2,0.6-0.3,1-0.3c0.3,0,0.6,0.1,0.8,0.2c0.2,0.1,0.4,0.3,0.5,0.6l-0.5,0.3c-0.1-0.2-0.2-0.3-0.4-0.4
				c-0.1-0.1-0.3-0.1-0.5-0.1c-0.2,0-0.4,0.1-0.5,0.2c-0.1,0.1-0.2,0.3-0.2,0.5c0,0.2,0.1,0.3,0.2,0.5c0.1,0.1,0.3,0.2,0.5,0.3
				L35,50.1z"/>
		</g>
		<g>
			<path class="st0" d="M36.7,48.2c0-0.1,0-0.2,0.1-0.3c0.1-0.1,0.2-0.1,0.3-0.1c0.1,0,0.2,0,0.3,0.1c0.1,0.1,0.1,0.2,0.1,0.3
				c0,0.1,0,0.2-0.1,0.3c-0.1,0.1-0.2,0.1-0.3,0.1s-0.2,0-0.3-0.1C36.7,48.4,36.7,48.4,36.7,48.2z M36.8,52.8v-3.1h0.5v3.1H36.8z"/>
		</g>
		<g>
			<path class="st0" d="M38.4,52.8v-3.1h0.5v0.5c0.1-0.2,0.3-0.3,0.5-0.4c0.2-0.1,0.4-0.1,0.6-0.1c0.4,0,0.6,0.1,0.9,0.3
				c0.2,0.2,0.3,0.5,0.3,0.8v2.1h-0.5V51c0-0.3-0.1-0.5-0.2-0.7c-0.1-0.2-0.3-0.2-0.6-0.2c-0.2,0-0.3,0-0.4,0.1
				c-0.1,0.1-0.2,0.1-0.3,0.2c-0.1,0.1-0.1,0.2-0.1,0.3c0,0.1,0,0.3,0,0.5v1.6H38.4z"/>
		</g>
		<g>
			<path class="st0" d="M44.7,52.1v0.6c-0.1,0.1-0.3,0.1-0.5,0.2c-0.2,0-0.4,0.1-0.6,0.1c-0.5,0-0.9-0.2-1.2-0.5
				c-0.3-0.3-0.4-0.7-0.4-1.2c0-0.5,0.2-0.9,0.5-1.2c0.3-0.3,0.7-0.5,1.2-0.5c0.2,0,0.3,0,0.5,0.1s0.3,0.1,0.5,0.2v0.6
				c-0.1-0.1-0.3-0.2-0.4-0.2c-0.1,0-0.3-0.1-0.4-0.1c-0.3,0-0.6,0.1-0.8,0.3c-0.2,0.2-0.3,0.5-0.3,0.9c0,0.3,0.1,0.6,0.3,0.8
				c0.2,0.2,0.5,0.3,0.8,0.3c0.2,0,0.3,0,0.5-0.1C44.3,52.3,44.5,52.2,44.7,52.1z"/>
		</g>
		<g>
			<path class="st0" d="M48.1,51.4h-2.4v0c0,0.3,0.1,0.6,0.3,0.8c0.2,0.2,0.4,0.3,0.7,0.3c0.2,0,0.4-0.1,0.6-0.2
				c0.2-0.1,0.3-0.3,0.4-0.5l0.4,0.3c-0.2,0.3-0.4,0.5-0.6,0.6C47.3,52.9,47,53,46.7,53c-0.5,0-0.9-0.2-1.1-0.5
				c-0.3-0.3-0.4-0.7-0.4-1.2c0-0.5,0.1-0.9,0.4-1.2c0.3-0.3,0.7-0.5,1.1-0.5c0.5,0,0.8,0.1,1.1,0.4c0.3,0.3,0.4,0.7,0.4,1.2V51.4z
				 M47.6,50.9c0-0.3-0.1-0.5-0.3-0.6c-0.2-0.1-0.4-0.2-0.7-0.2c-0.3,0-0.5,0.1-0.6,0.2c-0.2,0.2-0.3,0.4-0.3,0.6H47.6z"/>
		</g>
		<g>
			<path class="st0" d="M52.3,52.8v-4.4h-1l0.3-0.5h1.3v4.9H52.3z"/>
		</g>
		<g>
			<path class="st0" d="M57.2,50.8c-0.1,0.1-0.2,0.1-0.4,0.2c-0.1,0-0.3,0.1-0.4,0.1c-0.4,0-0.8-0.1-1.1-0.4
				c-0.3-0.3-0.4-0.7-0.4-1.1c0-0.5,0.2-0.9,0.5-1.2c0.3-0.3,0.7-0.4,1.3-0.4c0.5,0,0.8,0.1,1.1,0.4c0.3,0.3,0.4,0.7,0.4,1.2
				c0,0.5-0.3,1.1-0.9,2l0,0l-1.1,1.6l-0.5-0.3L57.2,50.8z M57.6,49.4c0-0.3-0.1-0.6-0.3-0.8c-0.2-0.2-0.4-0.3-0.7-0.3
				c-0.3,0-0.6,0.1-0.7,0.3c-0.2,0.2-0.3,0.5-0.3,0.8c0,0.3,0.1,0.6,0.3,0.8c0.2,0.2,0.4,0.3,0.8,0.3c0.3,0,0.5-0.1,0.7-0.3
				C57.5,50,57.6,49.7,57.6,49.4z"/>
		</g>
		<g>
			<path class="st0" d="M59.3,50.4l-0.1,0l0.6-2.4H62v0.5h-1.8l-0.3,1.3c0.1-0.1,0.2-0.1,0.4-0.1c0.1,0,0.3,0,0.4,0
				c0.5,0,0.9,0.1,1.1,0.4c0.3,0.3,0.4,0.7,0.4,1.2c0,0.6-0.2,1-0.5,1.3C61.4,52.8,61,53,60.4,53c-0.3,0-0.6-0.1-0.9-0.2
				c-0.2-0.1-0.4-0.3-0.6-0.5l0.4-0.5c0.1,0.2,0.3,0.4,0.4,0.5c0.2,0.1,0.4,0.2,0.6,0.2c0.4,0,0.6-0.1,0.9-0.3s0.3-0.5,0.3-0.9
				c0-0.4-0.1-0.6-0.3-0.9C61,50.1,60.7,50,60.4,50c-0.2,0-0.4,0-0.6,0.1C59.6,50.2,59.5,50.2,59.3,50.4z"/>
		</g>
		<g>
			<path class="st0" d="M65.3,50.8c-0.1,0.1-0.2,0.1-0.4,0.2c-0.1,0-0.3,0.1-0.4,0.1c-0.4,0-0.8-0.1-1.1-0.4
				c-0.3-0.3-0.4-0.7-0.4-1.1c0-0.5,0.2-0.9,0.5-1.2c0.3-0.3,0.7-0.4,1.3-0.4c0.5,0,0.8,0.1,1.1,0.4c0.3,0.3,0.4,0.7,0.4,1.2
				c0,0.5-0.3,1.1-0.9,2l0,0l-1.1,1.6l-0.5-0.3L65.3,50.8z M65.7,49.4c0-0.3-0.1-0.6-0.3-0.8c-0.2-0.2-0.4-0.3-0.7-0.3
				c-0.3,0-0.6,0.1-0.7,0.3c-0.2,0.2-0.3,0.5-0.3,0.8c0,0.3,0.1,0.6,0.3,0.8c0.2,0.2,0.4,0.3,0.8,0.3c0.3,0,0.5-0.1,0.7-0.3
				C65.6,50,65.7,49.7,65.7,49.4z"/>
		</g>
	</g>
	<g>
		<path class="st0" d="M10.8,39.4v1.9H13v-1.9h0.6V44H13v-2.1h-2.2V44h-0.6v-4.6H10.8z"/>
		<path class="st0" d="M15.4,44l-1.2-4.6h0.6l0.5,2.3c0.1,0.6,0.3,1.1,0.3,1.6h0c0.1-0.5,0.2-1,0.4-1.6l0.6-2.3h0.6l0.6,2.3
			c0.1,0.5,0.2,1.1,0.3,1.6h0c0.1-0.5,0.2-1,0.4-1.6l0.6-2.3h0.6L18.6,44h-0.6l-0.6-2.4c-0.1-0.6-0.2-1-0.3-1.5h0
			c-0.1,0.5-0.2,0.9-0.4,1.5L16.1,44H15.4z"/>
		<path class="st0" d="M20.8,42.6L20.4,44h-0.6l1.5-4.6H22l1.6,4.6h-0.6l-0.5-1.4H20.8z M22.3,42.1l-0.4-1.3
			c-0.1-0.3-0.2-0.6-0.2-0.8h0c-0.1,0.3-0.1,0.5-0.2,0.8L21,42.1H22.3z"/>
		<path class="st0" d="M24.2,43.3c0.3,0.2,0.6,0.3,1.1,0.3c0.6,0,1-0.3,1-0.8c0-0.4-0.2-0.7-0.9-0.9c-0.7-0.3-1.2-0.6-1.2-1.3
			c0-0.7,0.6-1.2,1.5-1.2c0.5,0,0.8,0.1,1,0.2l-0.2,0.5c-0.1-0.1-0.5-0.2-0.9-0.2c-0.6,0-0.9,0.4-0.9,0.7c0,0.4,0.3,0.6,0.9,0.9
			c0.8,0.3,1.2,0.7,1.2,1.3c0,0.7-0.5,1.3-1.6,1.3c-0.4,0-0.9-0.1-1.2-0.3L24.2,43.3z"/>
		<path class="st0" d="M30.1,41.9h-1.8v1.6h2V44h-2.6v-4.6h2.5v0.5h-1.9v1.4h1.8V41.9z"/>
		<path class="st0" d="M31.1,44v-4.6h0.6l1.5,2.3c0.3,0.5,0.6,1,0.8,1.5l0,0C34,42.6,34,42.1,34,41.3v-1.9h0.6V44h-0.6l-1.4-2.3
			c-0.3-0.5-0.6-1-0.9-1.5l0,0c0,0.6,0,1.1,0,1.9V44H31.1z"/>
		<path class="st0" d="M39.1,43.8c-0.3,0.1-0.8,0.2-1.4,0.2c-0.7,0-1.3-0.2-1.7-0.6c-0.4-0.4-0.6-1-0.6-1.7c0-1.4,0.9-2.4,2.5-2.4
			c0.5,0,0.9,0.1,1.1,0.2l-0.1,0.5c-0.2-0.1-0.5-0.2-1-0.2c-1.1,0-1.8,0.7-1.8,1.8c0,1.2,0.7,1.8,1.8,1.8c0.4,0,0.6-0.1,0.8-0.1
			v-1.4h-0.9v-0.5h1.5V43.8z"/>
	</g>
	<g>
		<path class="st0" d="M41.9,39.5c0.3-0.1,0.7-0.1,1.1-0.1c0.6,0,1,0.1,1.3,0.3c0.2,0.2,0.4,0.4,0.4,0.8c0,0.4-0.3,0.8-0.8,1v0
			c0.4,0.1,0.9,0.5,0.9,1.1c0,0.4-0.2,0.7-0.4,0.9C44,43.9,43.5,44,42.8,44c-0.4,0-0.7,0-0.9-0.1V39.5z M42.4,41.4H43
			c0.6,0,1-0.3,1-0.8c0-0.5-0.4-0.7-1-0.7c-0.3,0-0.4,0-0.5,0V41.4z M42.4,43.5c0.1,0,0.3,0,0.5,0c0.6,0,1.2-0.2,1.2-0.9
			c0-0.6-0.5-0.9-1.2-0.9h-0.5V43.5z"/>
		<path class="st0" d="M49.5,41.7c0,1.6-1,2.4-2.1,2.4c-1.2,0-2-0.9-2-2.3c0-1.4,0.9-2.4,2.1-2.4C48.7,39.4,49.5,40.3,49.5,41.7z
			 M46,41.7c0,1,0.5,1.8,1.5,1.8c0.9,0,1.5-0.9,1.5-1.9c0-0.9-0.5-1.9-1.5-1.9C46.4,39.8,46,40.7,46,41.7z"/>
		<path class="st0" d="M51,39.9h-1.4v-0.5H53v0.5h-1.4V44H51V39.9z"/>
		<path class="st0" d="M54.7,39.9h-1.4v-0.5h3.4v0.5h-1.4V44h-0.6V39.9z"/>
		<path class="st0" d="M57.3,39.4h0.6v4.1h1.9V44h-2.5V39.4z"/>
		<path class="st0" d="M62.9,41.9h-1.8v1.6h2V44h-2.6v-4.6H63v0.5h-1.9v1.4h1.8V41.9z"/>
		<path class="st0" d="M63.9,39.5c0.4-0.1,0.8-0.1,1.2-0.1c0.8,0,1.4,0.2,1.8,0.6c0.4,0.4,0.6,0.9,0.6,1.6c0,0.7-0.2,1.4-0.7,1.8
			c-0.4,0.4-1.1,0.7-2,0.7c-0.4,0-0.8,0-1.1-0.1V39.5z M64.5,43.5c0.1,0,0.4,0,0.6,0c1.3,0,1.9-0.7,1.9-1.9c0-1.1-0.6-1.8-1.8-1.8
			c-0.3,0-0.5,0-0.7,0.1V43.5z"/>
	</g>
	<g>
		<path class="st0" d="M71,44l-1.2-4.6h0.6l0.5,2.3c0.1,0.6,0.3,1.1,0.3,1.6h0c0.1-0.5,0.2-1,0.4-1.6l0.6-2.3H73l0.6,2.3
			c0.1,0.5,0.2,1.1,0.3,1.6h0c0.1-0.5,0.2-1,0.4-1.6l0.6-2.3h0.6L74.1,44h-0.6L73,41.6c-0.1-0.6-0.2-1-0.3-1.5h0
			c-0.1,0.5-0.2,0.9-0.4,1.5L71.6,44H71z"/>
		<path class="st0" d="M76.4,42.6L76,44h-0.6l1.5-4.6h0.7l1.6,4.6h-0.6L78,42.6H76.4z M77.9,42.1l-0.4-1.3c-0.1-0.3-0.2-0.6-0.2-0.8
			h0c-0.1,0.3-0.1,0.5-0.2,0.8l-0.4,1.3H77.9z"/>
		<path class="st0" d="M80.2,39.9h-1.4v-0.5h3.4v0.5h-1.4V44h-0.6V39.9z"/>
		<path class="st0" d="M85.2,41.9h-1.8v1.6h2V44h-2.6v-4.6h2.5v0.5h-1.9v1.4h1.8V41.9z"/>
		<path class="st0" d="M86.2,39.5c0.3-0.1,0.7-0.1,1.1-0.1c0.6,0,1,0.1,1.3,0.4c0.2,0.2,0.4,0.5,0.4,0.9c0,0.6-0.4,1-0.9,1.2v0
			c0.4,0.1,0.6,0.4,0.7,0.9c0.1,0.6,0.3,1.1,0.4,1.2h-0.6c-0.1-0.1-0.2-0.5-0.3-1.1c-0.1-0.6-0.4-0.9-0.9-0.9h-0.6v2h-0.6V39.5z
			 M86.8,41.6h0.6c0.6,0,1-0.3,1-0.9c0-0.6-0.4-0.8-1-0.9c-0.3,0-0.5,0-0.6,0.1V41.6z"/>
	</g>
	<g>
		<g>
			<g>
				<path class="st0" d="M28.2,18.1c-0.1-0.3-2.1,0.5-2.1,0.2c0,0-0.5-1.5-0.3-1.6c0.7-0.6,2.2-1.8,2-2.4c-0.1-0.3-0.6-0.1-0.8-0.4
					c-0.3-0.3-4.6,1.3-4.6,1.2c-0.1,0-0.2-0.1-0.3-0.1c-0.6-0.4-1.6-1.1-1.5-1.2c0.6-0.3,1-0.6,1.5-0.9c2.7-1.7,2.6-2.2,1.9-2.7
					c-0.2-0.2-1,0-1.9,0.3c-1.4,0.4-2.9,1-3.2,0.6c-0.2-0.4,2.4-1.3,3.2-1.8c0.1,0,0.1-0.1,0.1-0.1c1-0.3,3,0,3-1.7
					c0-0.6-0.6-1.1-1-1.5c-0.5-0.5-1-0.7-1.5-0.8c-0.2,0-0.5,0-0.7,0.1c-0.7,0.4-1.4,1.6-2.8,3.8c-0.1,0.2-1-1.4-1.8-1.8
					c-0.1,0-0.2-0.1-0.3-0.1c-0.1,0-0.3,0-0.4,0c-1.1,0.1-1.7,1.2-2,1.4c-0.6,0.6-1.1,2.1,1.8,3.7c0.6,0.4-1.7,0.1-2.2,0.5
					c-0.8,0.7-1.1,1.6-1,1.8c0.2,0.7,0.8,0.7,2.4,0.4c0.3,0,0.6-0.3,1-0.6c0.2-0.1,0.3-0.2,0.4-0.3c0.1,0,0.2-0.1,0.2,0
					c0.2,0,0.3,0.1,0.2,0.2c0,0-0.1,0.1-0.2,0.2c-0.2,0.1-0.4,0.3-0.7,0.5c-1.2,0.8-3.3,2.2-3.3,2.3c-0.3,0.4-0.9,0.5-1.4,1.3
					c-0.9,1.3,1.5,4.7,1,5.5c-0.4,0.7-1.4,0.8-2.1,1.3c-0.5,0.3-0.8-0.1-1.2,0.1c-1.6,0.8-1,2.1-1,2.5c0,0.2,0.6,0.3,1.3,0
					c1.5-0.6,3.6-2,3.9-1.8c0.6,0.4,0.6,0.2,1.6,0.6c0.4,0.1-2.2,1.1-2.2,1.5c0,0.5,0,1,0.1,1.4c0.1,0.5,1,0.4,1.2,0.7
					c0.1,0.3,1.4-0.6,2.2-1.1c0.3-0.2,0.5-0.3,0.7-0.4c0.1,0,0.2,0,0.2,0c0.1,0.5,0.2,0.8-0.2,1.1l0,0c-0.1,0.1-0.4,0.2-0.6,0.4
					c-1.2,0.7-3.5,1.7-3.5,2.4c0,1.1-0.3,2.3,0.1,3c0.1,0.2,0.9,0.4,1.6,0c0.8-0.4,1.4-1.3,1.8-1.7c0.3-0.3,0.5-0.4,0.7-0.3l0,0
					c0.4,0.3-0.2,2.5,0.2,2.6c0.3,0.1,0.6,0.2,0.9,0.2c0.2,0,1.2-1.1,1.5-1.9c0.2-0.6-0.1-2.1,0.2-2.3c0.3-0.3,1-0.7,1.7-1.1
					c1.8-1,4.1-2.3,4.3-2.9c0.2-0.8-2.3-1.5-2-1.7c1.6-0.9,3.4-2.1,2.4-3.3c-0.5-0.6-2-0.1-2.6,0.2c-0.1,0.1-1.2,0.7-2.1,1.1
					c-0.7,0.4-1.3,0.7-1.4,0.5c0-0.3-0.1-3.4,0.5-3.3c0.1,0,0.2,2.1,0.2,2c0-0.1,0.3-0.4,0.7-0.8c0.8-0.7,1.9-1.7,2-1.9
					c0-0.4,2.5,0.2,2.5-0.2c0-0.3,2.2-0.9,2.5-1.8C29.1,18.9,28.2,18.4,28.2,18.1z M17.7,25.6l-0.3-0.2l-0.3-0.2l0-1.6h0.3h0.3V25.6
					z M17.5,22.3c0,0-0.1,0.1-0.1,0.1c-0.2,0-0.4-0.4-0.7-0.8c-0.3-0.6-0.7-1.5-0.7-1.7c0-0.2,0.3-0.2,0.7-0.2c0.2,0,0.5,0,0.7,0.1
					c0.2,0,0.3,0,0.5,0c0.3,0-0.1,0.4-0.1,0.8C17.9,21.5,17.6,22.1,17.5,22.3z M17.9,17.4c-0.1,0.1-0.3,0.2-0.4,0.3
					c-0.2,0.1-0.4,0.2-0.7,0.3c-0.1,0-0.2,0.1-0.3,0.1c-0.6,0.1-1.1,0.1-1.1-0.3c0-0.3,0.7-1,1.4-1.6c0.2-0.2,0.5-0.4,0.7-0.5
					c0.1-0.1,0.2-0.1,0.3-0.1C18.4,15.8,18.1,17.2,17.9,17.4z M23.7,28.7c-0.6,0.1-1.2,0.2-1.7,0.4c-0.8,0.2-1.5,0.5-1.8,1V29
					c0.6-0.1,1.2-0.5,1.8-0.8c0.3-0.2,0.6-0.4,1-0.5C23.4,27.8,23.6,28.1,23.7,28.7z M22,26.5l0.2-0.1L22.1,27L22,27.1l-1.6,1.3
					v-1.1L22,26.5z M22.9,19.5c-0.1,0.1-0.5,0.5-0.9,0.8c-0.3,0.2-0.6,0.4-0.9,0.5c-0.6,0.1-0.3-1.2-0.3-1.6c0-0.2,0.6-0.8,1.2-1.2
					c0.4-0.3,0.8-0.4,1-0.4C23.6,17.5,23.2,19.3,22.9,19.5z"/>
			</g>
		</g>
		<g>
			<g>
				<path class="st0" d="M43.8,16.2c-0.2-0.4-2.9,0.1-3-0.3c-0.1-0.4,0-1.1-0.1-1.4c-0.2-0.6,1.9-1,1.1-1.8c-0.6-0.6-1-1.4-1.3-1.6
					c-0.3-0.2-2,0.3-2.5,0.6c-0.5,0.3,0.8,5.5,0.3,6c-1,0.8-2.1,1.6-3.1,2.2c-0.9,0.5,2-3.9,2.5-5.1c0.5-1-3.4-1.7-3.6-1.5
					c-0.2,0.3-2.4,4.2-4,6.6c-0.2,2.9,0.3,3.7,1.6,4.4c0.8,0.4,3.1-2.3,4.6-2c1.2-0.8,1.8-1.5,1.9-1.3c0.2,0.6-2,2.6-3.2,3.3
					c-1.3,0.8-2.1,1.9-2.1,2.3c0.1,0.8,1.1,1.3,2.3,1.5c0.6,0.1,1.5-2.4,2-2.4c0.5,0,0.5,0.8,0.1,1.4c-1.3,1.6-4,4.3-4.3,4.2
					c-0.6-0.2-2.5,2.3-2.2,3.2c2,0.1,3.7-0.9,5.5-2.3c0.7-0.6-0.8,1.4-1.3,2.3c-0.2,0.4,0.4,0.1,0.5,0.1c1-0.9,2.2-1.8,3.7-2.7
					c1.5-0.9,3.1-1.7,3.6-2.7c0.2-0.5,0-0.9-0.2-1.4c-0.1-0.4-2.8,0.6-2.8,0.3c0-0.3,0-1.6,0.7-2.9c0.7-1.2,2.2-1,2.2-2.6
					c0-1-1.9-0.1-2.9-0.6c-0.5-0.2-0.6-1-0.5-1.6C39.4,19.6,44.9,18.6,43.8,16.2z"/>
			</g>
		</g>
		<g>
			<path class="st0" d="M53.2,12.7c0.5,0,1,0.1,1.4,0.2c0.6,0.2,0.9,0.8,0.9,1.9c0,0.1-0.1,0.4-0.4,0.7c1.2,0.1,2.2,0.4,3,0.8
				c0.2,0.4,0.3,1.2,0.3,2.2c-0.3,0-0.7-0.1-1.2-0.1c-0.6-0.1-1.1-0.2-1.5-0.2c0.3,0.1,0.4,0.3,0.6,0.5c0,0.2,0,0.4-0.2,0.6
				c-1.2,0.6-2.4,1.2-3.5,1.8c-0.5,0.2-0.8,0.3-0.9,0.3c0-0.1,0.2-0.2,0.6-0.6c0.3-0.2,0.6-0.4,0.8-0.5c-0.1,0-0.1,0-0.2,0
				c-0.4-0.1-0.8-0.4-1-0.9c-0.5,0.8-1.3,1.8-2.4,2.9c-0.8,0.9-1.5,1.5-1.9,1.6c-0.7,0-1-0.1-1-0.4c0.4-0.3,0.9-0.8,1.7-1.7
				c0.9-1.2,1.9-2.7,3-4.7c0.6-0.8,1.1-1.9,1.6-3.4c0-0.4-0.2-0.7-0.7-1C52.6,12.7,52.8,12.7,53.2,12.7z M55.7,20.5
				c1.2,0.4,1.8,1.1,1.8,1.9c-0.3,1-0.7,2.1-1.1,3.4c-0.2,0.6-0.4,1-0.8,1.2c-0.4,0-0.6-0.2-0.7-0.6c-0.4,0.3-0.8,0.5-1.2,0.8
				c-0.2,0.1-0.4,0.2-0.5,0.4c-0.2,0.1-0.3,0.2-0.6,0.2c-0.3-0.1-0.5-0.2-0.6-0.5c-0.1,0.8-0.2,1.6-0.2,2.5c0,0.1,0.1,0.2,0.3,0.2
				c0.2,0,0.4-0.1,0.7-0.3c0.3-0.2,0.7-0.4,1-0.7c0.2-0.1,0.5-0.3,0.7-0.4c-0.2-0.3-0.3-0.7-0.5-1.1c1.1,0,2,0.2,2.5,0.6
				c0.2,0.5,0.3,1,0.3,1.5c0,0.4-0.3,0.6-0.9,0.6c-0.3-0.1-0.6-0.4-1-1c-0.6,1.1-1.3,2.2-2.2,3.5c-0.4,0-1-0.5-1.8-1.4
				c-0.4-0.7-0.6-1.1-0.6-1.3c0.3-1,0.4-2,0.4-2.9c0-0.6,0-1.1,0.1-1.6c-0.1-0.3-0.2-0.6-0.3-0.9c0-0.5,0.1-1,0.4-1.4
				c0.3-0.2,0.5-0.3,0.7-0.3c0.2,0.1,0.3,0.3,0.3,0.5c0.1-0.2,0.3-0.3,0.6-0.3c0.6,0,1.2,0.1,1.7,0.3c0.4,0.2,0.6,0.4,0.6,0.6
				c0,0.5-0.2,0.8-0.7,1c-0.3,0-0.6-0.1-0.8-0.2c-0.2-0.3-0.6-0.4-1-0.6c-0.2,0-0.3-0.1-0.3-0.1c0.1,0.7,0.1,1.4,0.1,2
				c0.1,0,0.1,0,0.2-0.1c0.3-0.1,0.6-0.2,1-0.3c0.6-0.2,1.2-0.4,1.8-0.7c0,0,0.1-0.1,0.2-0.1c0.1-0.8,0.2-1.7,0.3-2.8
				c0-0.2,0-0.3-0.2-0.3c-0.6,0.1-1.4,0.5-2.3,1c-0.2,0-0.4-0.2-0.8-0.4c-0.6-0.3-0.9-0.6-0.9-0.9c1.2,0,1.9-0.1,2.2-0.4
				c0.4-0.1,0.8-0.1,1.1-0.3C55.1,20.6,55.4,20.5,55.7,20.5z M52.6,18.8c0.9-0.3,1.7-0.6,2.3-0.8c0.4-0.1,0.8-0.3,1.3-0.6
				c-0.6-0.3-1.3-0.6-1.9-0.8C53.9,17.2,53.3,18,52.6,18.8z M60.2,12.5c1.8,0.1,2.8,1,3,2.7c-0.5,2.8-1.3,4.9-2.6,6.4
				c1.4-1.3,3-2.2,4.6-2.7v-0.1h0.7c1,0.4,1.7,1.1,2.1,2.2c-0.4,0.8-0.9,1.3-1.5,1.4c-0.5,0.3-1.3,0.9-2.2,1.8
				c-0.4,0.2-0.9,0.3-1.7,0.4c-0.1,0.7-0.2,1.4-0.3,2h0.2c0.1,0,0.5,0.1,1.2,0.3c0.6,0.1,1.2,0.4,1.8,0.7c0.6,0.1,1.2,0.5,1.8,1.2
				c0.5,0.3,0.8,0.5,0.8,0.6c0.1,0.1,0.2,0.4,0.4,0.8c0.1,0.5,0.2,0.8,0.2,1c0,0.2-0.1,0.5-0.3,0.9c-0.3,0.2-0.7,0.3-1,0.3
				c-0.2,0-0.7-0.4-1.6-1.3c-0.8-0.5-1.3-1-1.7-1.4c-0.3-0.4-0.6-0.8-0.9-1c-0.4-0.5-0.7-0.9-1.1-1.3c-0.7,2.6-1.9,4.1-3.5,4.6
				c-1.2,0-1.9-0.4-2.1-1.2c1.1,0,1.9-0.4,2.3-1.1c1.3-1.2,2-3.3,2-6.3c-0.7,0.4-1.4,0.9-2.2,1.4c-0.5-0.2-0.8-0.9-0.8-2
				c2.2-2.5,3.2-5.1,3.2-7.9c-0.2-0.8-0.7-1.2-1.6-1.2C59.5,12.9,59.8,12.5,60.2,12.5z M62,22.4c0.4,0.3,0.7,0.7,0.8,1.2
				c0,0.2,0,0.4,0,0.5c1-0.8,1.7-1.6,2.3-2.6C65,21.4,65,21.2,65,21C64.2,21.3,63.1,21.8,62,22.4z"/>
		</g>
		<g>
			<path class="st0" d="M75.6,19.1c0.7,0,1.3,0.4,1.7,1.2c0,0.1-0.1,0.3-0.2,0.6h1c0.1,0,0.1,0,0.2,0.1c0-0.6,0.1-1.1,0.2-1.7
				c0-0.7,0.1-1.4,0.1-2.1c0.1-0.2,0.2-0.7,0.2-1.5c0.1-0.8,0.1-1.4,0.1-1.6c-0.2-0.3-0.3-0.7-0.4-1.1c0-0.4-0.1-0.8-0.3-1.1
				c-0.1,0-0.2,0-0.3,0.1c0-0.3,0.1-0.7,0.3-1.1h0.2c0.5,0.4,1.1,0.7,1.7,1c0.1,0,0.3,0.4,0.7,1c0.5,1.1,0.7,1.7,0.7,1.8
				c0,0.3-0.1,0.7-0.2,1.3c-0.2,0.8-0.3,1.2-0.4,1.3c-0.1,0.1-0.3,0.9-0.6,2.2c-0.1,0.5-0.1,0.8-0.2,1.2c0.2-0.2,0.5-0.3,0.9-0.6
				c0.7-0.7,1.4-1.3,1.9-2c1.1-1.3,1.6-2.2,1.7-2.6c-0.1-0.5-0.2-0.7-0.3-0.8c0.1-0.1,0.3-0.2,0.5-0.2c0.4,0.1,0.7,0.3,0.9,0.7
				c0.7,0.9,1,1.6,1,2.1c0,0.2-0.2,0.5-0.6,0.8c-0.4,0.4-1,0.8-1.6,1.3c-0.6,0.6-1.4,1.3-2.2,2c-0.4,0.4-0.6,0.8-0.9,1
				c0.8,0.4,1.6,0.8,2.3,1.3c2.5,1.1,4.7,1.9,6.6,2.5c0.4,0.2,0.6,0.5,0.6,0.8c0,0.3-0.7,0.5-2.1,0.7c-2,0.1-3.1,0.1-3.4,0.1
				c-0.4,0-1.7-1-3.8-3c-0.5-0.5-1-0.9-1.6-1.2c0,0.6,0.1,1.2,0.1,1.9c0.1,2,0.2,3.3,0.2,3.6c0.1,0.5,0.1,1,0.2,1.5
				c-0.1,0.5-0.2,1.1-0.2,1.6c-0.1,0.4-0.2,0.7-0.4,1c-0.2,0.5-0.4,0.7-0.7,0.7c-0.1,0-0.4-0.3-0.9-0.9c-0.7-0.8-1.2-1.4-1.7-1.8
				c-1-0.9-1.9-1.8-2.7-2.6c0.7,0.2,1.4,0.4,2,0.6c0.8,0.3,1.4,0.5,1.9,0.5c0.3-0.1,0.5-0.3,0.6-0.7c0-0.3,0-1.5-0.1-3.6v-2.5
				c-0.2-0.1-0.4-0.2-0.6-0.2c-0.4-0.1-0.8-0.1-1.1-0.2c-0.2,0.4-0.5,0.8-0.7,1.2c-0.3,0.8-1.1,2-2.5,3.6c-0.5,0.4-1.1,0.6-1.8,0.7
				c-0.2,0-0.4-0.1-0.7-0.2c0.9-0.7,1.8-1.8,2.5-3.3c0.6-1,0.9-1.7,0.9-2c-0.5,0.5-0.9,0.8-1.3,0.8c-1-0.4-1.7-0.9-2.3-1.6
				c0-0.4,0.1-0.8,0.4-1c0.2,0.2,0.5,0.3,1.1,0.3C73.9,20.1,75.1,19.6,75.6,19.1z"/>
		</g>
	</g>
</g>
</svg>
